<?xml version="1.0" standalone="no"?>
<!DOCTYPE svg PUBLIC "-//W3C//DTD SVG 20010904//EN"
 "http://www.w3.org/TR/2001/REC-SVG-20010904/DTD/svg10.dtd">
<svg version="1.0" xmlns="http://www.w3.org/2000/svg"
 width="690.000000pt" height="690.000000pt" viewBox="0 0 690.000000 690.000000"
 preserveAspectRatio="xMidYMid meet">
<metadata>
Created by potrace 1.14, written by Peter Selinger 2001-2017
</metadata>
<g transform="translate(0.000000,690.000000) scale(0.100000,-0.100000)"
fill="#000000" stroke="none">
<path d="M4107 5128 c-35 -9 -102 -40 -150 -68 -171 -101 -380 -179 -577 -215
-153 -29 -397 -39 -525 -21 -121 17 -179 28 -272 52 -116 31 -158 32 -215 6
-54 -24 -91 -61 -119 -118 -48 -100 2 -237 106 -292 45 -24 140 -24 209 -1 69
24 214 55 306 66 139 17 420 8 535 -17 22 -5 56 -11 75 -14 90 -14 278 -84
435 -161 180 -89 195 -94 291 -100 76 -4 131 7 210 44 115 54 206 162 239 285
22 79 17 207 -11 276 -86 217 -319 338 -537 278z"/>
<path d="M2575 3905 c-144 -34 -270 -148 -320 -290 -40 -114 -24 -270 39 -377
89 -152 276 -241 451 -215 62 9 112 28 170 63 147 90 203 122 226 129 13 4 29
11 34 15 23 18 187 62 275 74 174 25 355 7 523 -50 124 -42 207 -26 279 54
101 112 63 290 -76 353 -56 25 -117 24 -206 -5 -41 -14 -93 -28 -115 -32 -22
-3 -49 -9 -60 -11 -52 -11 -268 -10 -345 3 -163 26 -333 96 -479 197 -83 57
-106 69 -166 88 -53 17 -168 19 -230 4z"/>
<path d="M2608 2625 c-118 -20 -235 -94 -304 -193 -58 -84 -88 -247 -62 -351
48 -200 219 -340 421 -346 98 -4 149 10 279 73 182 90 313 121 508 121 199 0
342 -35 532 -130 111 -55 127 -60 226 -64 129 -5 234 36 328 130 69 68 97 117
120 207 72 279 -143 559 -428 559 -97 0 -138 -12 -267 -77 -327 -163 -697
-164 -1016 -1 -103 53 -138 66 -200 73 -27 3 -54 6 -60 8 -5 1 -40 -3 -77 -9z"/>
</g>
</svg>
